<?xml version="1.0" encoding="utf-8"?>
<!-- Generator: Adobe Illustrator 21.1.0, SVG Export Plug-In . SVG Version: 6.00 Build 0)  -->
<svg version="1.1" id="圖層_1" xmlns="http://www.w3.org/2000/svg" xmlns:xlink="http://www.w3.org/1999/xlink" x="0px" y="0px"
	 viewBox="0 0 14.5 20.3" style="enable-background:new 0 0 14.5 20.3;" xml:space="preserve">
<style type="text/css">
	.st0{fill:#4B51E6;}
</style>
<title>幫助中心_關於我們</title>
<g id="line">
	<path class="st0" d="M7.3,20.3c-0.8-1-1.5-2-2.2-3c-1.7-2.2-3.1-4.7-4.3-7.2C0.3,9.1,0,8.1,0,7c0.2-4,3.6-7.1,7.6-7
		c3.3,0.1,6.1,2.5,6.8,5.8c0.3,1.4,0.1,2.8-0.5,4.1c-1.1,2.4-2.4,4.6-4,6.7C9.1,17.9,8.2,19,7.3,20.3z M6,8.5L6,8.5
		c0-0.1-0.1-0.2-0.1-0.2c-0.6-0.6-1-1.3-1.2-2.1C4.4,4.7,5.3,3.3,6.7,3s2.8,0.6,3.1,2c0.2,1.1-0.1,2.3-1,3.1
		C8.7,8.2,8.6,8.2,8.4,8.4c1.3,0.4,2.5,1.2,3.2,2.4c2-2.2,1.9-5.6-0.2-7.7C9.2,0.8,5.5,0.7,3.2,3C3.1,3.1,3.1,3.1,3,3.2
		c-2,2.1-2.1,5.4-0.2,7.7C3.5,9.7,4.7,8.8,6,8.5z M6.5,8.7c0.6,0.4,0.4,0.8,0.2,1.2c-0.1,0.4-0.2,0.8-0.4,1.2
		c-0.5,0.8-0.4,1.9,0.3,2.6c0.2,0.3,0.4,0.5,0.6,0.8c0.5-0.7,0.9-1.3,1.3-1.9c0.1-0.1,0.1-0.3,0-0.4c-0.2-0.7-0.5-1.4-0.7-2.1
		c-0.2-0.5-0.6-1,0.1-1.4L6.5,8.7z"/>
</g>
</svg>
