<svg xmlns="http://www.w3.org/2000/svg" viewBox="0 0 19.4 18.74"><defs><style>.cls-1{fill:#fff;}</style></defs><title>00</title><g id="cnt"><path class="cls-1" d="M2.47,16.3a8.43,8.43,0,0,1-1.34-.57,2.25,2.25,0,0,1-1.11-2C0,11.47,0,7.26,0,5A2.7,2.7,0,0,1,2.93,2.44h13.5a2.81,2.81,0,0,1,2.88,2,.7.7,0,0,0,.09.17v9.52a3.05,3.05,0,0,1-2.46,2.17ZM1.54,9.36v4c0,1.18.43,1.56,1.78,1.56H14.69c.61,0,1.23,0,1.84,0a1.24,1.24,0,0,0,1.32-1.16c0-.41,0-.83,0-1.24V9.36ZM17.81,6.8c.22-1.4-.19-3.08-2-3-3,.06-6.05,0-9.07,0H3a1.3,1.3,0,0,0-1.4.93c-.06.36,0,1.69,0,2.09Z"/></g></svg>