<?xml version="1.0" encoding="utf-8"?>
<!-- Generator: Adobe Illustrator 21.1.0, SVG Export Plug-In . SVG Version: 6.00 Build 0)  -->
<svg version="1.1" id="圖層_1" xmlns="http://www.w3.org/2000/svg" xmlns:xlink="http://www.w3.org/1999/xlink" x="0px" y="0px"
	 viewBox="0 0 19.2 23.2" style="enable-background:new 0 0 19.2 23.2;" xml:space="preserve">
<style type="text/css">
	.st0{fill:#4B51E6;}
</style>
<title>幫助中心</title>
<g id="line">
	<path class="st0" d="M9.5,16.6H6.2c-0.1,0-0.1,0-0.1-0.1c0-0.5,0-1.1,0-1.6c0,0,0-0.1-0.1-0.1c-0.2-0.1-0.5-0.3-0.7-0.5
		c-0.1-0.1-0.3-0.3-0.4-0.4c-0.3-0.3-0.6-0.6-0.8-1c-0.3-0.5-0.5-0.9-0.6-1.5c-0.1-0.3-0.1-0.5-0.2-0.8c0-0.3-0.1-0.6-0.1-0.9
		c0-0.3,0-0.5,0-0.8c0.1-0.6,0.2-1.2,0.4-1.7c0.1-0.4,0.3-0.7,0.5-1c0.2-0.3,0.4-0.5,0.6-0.8c0.2-0.2,0.5-0.5,0.7-0.7
		C5.9,4.5,6.4,4.2,6.9,4c0.5-0.2,1-0.4,1.5-0.5l0.7-0.1c0.3,0,0.5,0,0.8,0c0.2,0,0.3,0,0.5,0c0.3,0,0.5,0.1,0.8,0.2
		C11.5,3.7,11.7,3.8,12,4c0.4,0.2,0.7,0.4,1.1,0.6c0.2,0.1,0.3,0.3,0.5,0.4s0.2,0.2,0.3,0.3s0.3,0.3,0.4,0.4s0.2,0.3,0.4,0.5
		c0.3,0.4,0.5,0.9,0.7,1.4c0.1,0.3,0.2,0.7,0.3,1c0,0.2,0,0.3,0.1,0.5s0,0.4,0,0.6c0,0.4,0,0.8-0.1,1.3c-0.1,0.5-0.2,0.9-0.4,1.4
		c-0.3,0.6-0.7,1.2-1.2,1.7c-0.3,0.3-0.6,0.5-1,0.8c0,0-0.1,0.1-0.1,0.1v1.6c0,0.1,0,0.1-0.1,0.1H9.5z M7.7,14.6v0.8
		c0,0.1,0.1,0.3,0.2,0.4C8,15.9,8.1,15.9,8.3,16c0.4,0.1,0.9,0.2,1.3,0.2c0.2,0,0.5,0,0.7-0.1c0.2,0,0.4-0.1,0.6-0.1
		c0.3-0.1,0.5-0.3,0.5-0.6c0-0.5,0-1.1,0-1.6c0,0,0-0.1,0.1-0.1l0.4-0.2c0.4-0.2,0.8-0.5,1.1-0.8c0.2-0.3,0.4-0.6,0.6-0.9
		c0.2-0.5,0.4-1.1,0.4-1.7c0-0.3,0-0.6-0.1-0.9c-0.1-0.4-0.2-0.8-0.4-1.2c-0.2-0.4-0.4-0.8-0.8-1.1c-0.2-0.2-0.3-0.3-0.5-0.5
		c-0.3-0.2-0.6-0.4-1-0.6c-0.4-0.2-0.9-0.3-1.3-0.3c-0.3,0-0.7,0-1,0C8.4,5.6,7.9,5.8,7.5,6C7.2,6.2,6.9,6.4,6.6,6.6
		C6.3,7,6,7.4,5.8,7.8C5.5,8.3,5.3,8.9,5.3,9.5c0,0.4,0,0.8,0.1,1.2c0.1,0.5,0.3,0.9,0.5,1.3c0.3,0.5,0.8,1,1.3,1.3l0.5,0.3
		c0.1,0,0.1,0.1,0.1,0.1L7.7,14.6z"/>
	<path class="st0" d="M9.4,18.1H5.8c-0.4,0-0.6-0.4-0.6-0.7c0-0.3,0.3-0.5,0.6-0.6H13c0.4,0,0.7,0.3,0.7,0.7s-0.3,0.7-0.7,0.7
		L9.4,18.1z"/>
	<path class="st0" d="M9.4,18.6H13c0.4,0,0.7,0.2,0.7,0.6s-0.2,0.7-0.6,0.7c-0.1,0-0.1,0-0.2,0H5.8c-0.4,0-0.7-0.2-0.7-0.6
		c0-0.4,0.2-0.7,0.6-0.7c0.1,0,0.1,0,0.2,0H9.4z"/>
	<path class="st0" d="M9.4,21.5H7.4c-0.1,0-0.2-0.1-0.3-0.1c-0.2-0.3-0.2-0.7,0-1c0.1-0.1,0.2-0.2,0.3-0.2h4.1c0.1,0,0.2,0,0.3,0.1
		c0.2,0.3,0.2,0.7,0,1c-0.1,0.1-0.2,0.2-0.3,0.1L9.4,21.5z"/>
	<path class="st0" d="M15.7,5.4c-0.3,0-0.5-0.2-0.5-0.4c-0.1-0.2-0.1-0.5,0.1-0.6l1-0.9c0.2-0.2,0.6-0.3,0.8,0c0,0,0,0,0,0l0.2,0.2
		c0.2,0.2,0.2,0.6-0.1,0.8c0,0,0,0,0,0L16,5.2C16,5.3,15.8,5.4,15.7,5.4z"/>
	<path class="st0" d="M3.4,5.6c-0.1,0-0.2,0-0.3-0.1L1.9,4.7C1.6,4.5,1.6,4.2,1.7,3.9c0,0,0,0,0,0C1.8,3.8,1.9,3.7,2,3.6
		c0.2-0.2,0.6-0.2,0.8,0l1,0.9C4,4.7,4,5,3.9,5.2C3.8,5.4,3.6,5.6,3.4,5.6z"/>
	<path class="st0" d="M10.2,0.7c0,0.4-0.1,0.9-0.1,1.3c0,0.3-0.3,0.5-0.5,0.5C9.3,2.5,9.1,2.4,9,2.3C8.9,2.1,8.9,2,8.9,1.9
		c0-0.4-0.1-0.8-0.1-1.2c0-0.2,0.1-0.5,0.3-0.6C9.3,0,9.6,0,9.9,0.1C10.1,0.2,10.2,0.4,10.2,0.7z"/>
	<path class="st0" d="M2.5,11.7c0,0.3-0.2,0.5-0.4,0.6l-1.3,0.4c-0.3,0.1-0.6,0-0.7-0.3c0,0,0,0,0,0c0-0.1,0-0.2-0.1-0.3
		c-0.1-0.3,0.1-0.6,0.4-0.7c0,0,0,0,0.1,0c0.4-0.1,0.9-0.1,1.3-0.2c0.3-0.1,0.6,0.1,0.6,0.4C2.5,11.5,2.5,11.6,2.5,11.7z"/>
	<path class="st0" d="M16.7,11.5c0-0.3,0.2-0.5,0.5-0.6c0.1,0,0.2,0,0.3,0l1.1,0.2c0.2,0,0.3,0.1,0.4,0.2c0.1,0.1,0.2,0.3,0.1,0.5
		c0,0.1,0,0.2,0,0.3c-0.1,0.3-0.4,0.5-0.7,0.4c0,0,0,0-0.1,0l-1.3-0.4C16.9,12,16.7,11.8,16.7,11.5z"/>
	<path class="st0" d="M9.4,21.9h0.7c0.1,0,0.1,0,0.1,0.1c0,0.1,0.1,0.3,0.1,0.4c0,0.2,0,0.5,0,0.7c0,0,0,0.1,0,0.1
		c0,0.1-0.1,0.1-0.1,0.1c0,0,0,0,0,0H8.7c-0.1,0-0.1,0-0.1-0.1c0,0,0,0,0,0c0-0.1-0.1-0.3-0.1-0.4c0-0.2,0-0.4,0-0.7V22
		c0,0,0.1-0.1,0.1-0.1H9.4z"/>
</g>
</svg>
