<?xml version="1.0" encoding="utf-8"?>
<!-- Generator: Adobe Illustrator 22.0.1, SVG Export Plug-In . SVG Version: 6.00 Build 0)  -->
<svg version="1.1" id="圖層_1" xmlns="http://www.w3.org/2000/svg" xmlns:xlink="http://www.w3.org/1999/xlink" x="0px" y="0px"
	 viewBox="0 0 21 21" style="enable-background:new 0 0 21 21;" xml:space="preserve">
<style type="text/css">
	.st0{fill:#FFFFFF;}
</style>
<g>
	<path class="st0" d="M19.5,21c-0.4,0-0.8-0.1-1.1-0.4l-18-18C-0.1,2-0.1,1,0.4,0.4C1-0.1,2-0.1,2.6,0.4l18,18
		c0.6,0.6,0.6,1.5,0,2.1C20.3,20.9,19.9,21,19.5,21z"/>
	<path class="st0" d="M1.5,21c-0.4,0-0.8-0.1-1.1-0.4c-0.6-0.6-0.6-1.5,0-2.1l18-18c0.6-0.6,1.5-0.6,2.1,0c0.6,0.6,0.6,1.5,0,2.1
		l-18,18C2.3,20.9,1.9,21,1.5,21z"/>
</g>
</svg>
