<?xml version="1.0" encoding="utf-8"?>
<!-- Generator: Adobe Illustrator 24.1.3, SVG Export Plug-In . SVG Version: 6.00 Build 0)  -->
<svg version="1.1" id="圖層_1" xmlns="http://www.w3.org/2000/svg" xmlns:xlink="http://www.w3.org/1999/xlink" x="0px" y="0px"
	 viewBox="0 0 17.82 19" style="enable-background:new 0 0 17.82 19;" xml:space="preserve">
<style type="text/css">
	.st0{fill:#FFFFFF;}
</style>
<g>
	<g>
		<g>
			<path class="st0" d="M13.61,8.66c-0.1-0.21-0.31-0.35-0.54-0.35h-2.38V0.59C10.69,0.26,10.42,0,10.1,0H7.72
				C7.39,0,7.13,0.27,7.13,0.59v7.72H4.75c-0.23,0-0.44,0.14-0.54,0.35C4.11,8.87,4.15,9.12,4.3,9.3l4.16,4.75
				c0.11,0.13,0.28,0.2,0.45,0.2s0.33-0.07,0.45-0.2l4.16-4.75C13.67,9.12,13.71,8.88,13.61,8.66z"/>
		</g>
	</g>
	<g>
		<g>
			<path class="st0" d="M15.44,13.06v3.56H2.38v-3.56H0v4.75C0,18.47,0.53,19,1.19,19h15.44c0.66,0,1.19-0.53,1.19-1.19v-4.75H15.44
				z"/>
		</g>
	</g>
</g>
</svg>
