<svg id="圖層_1" data-name="圖層 1" xmlns="http://www.w3.org/2000/svg" viewBox="0 0 21.68 29"><defs><style>.cls-1{fill:#fff;opacity:0.7;}</style></defs><path class="cls-1" d="M572.17,1206.45h-19a1.34,1.34,0,0,1,0-2.67h19a1.34,1.34,0,1,1,0,2.67Z" transform="translate(-551.83 -1203.78)"/><path class="cls-1" d="M572.79,1219.35l-9.18-9.17a1.34,1.34,0,0,0-1.89,0l-9.17,9.17a1.34,1.34,0,0,0,1.89,1.9l6.89-6.89v17.08a1.34,1.34,0,1,0,2.68,0v-17.08l6.88,6.89a1.37,1.37,0,0,0,1,.39,1.34,1.34,0,0,0,.95-2.29Z" transform="translate(-551.83 -1203.78)"/></svg>