<?xml version="1.0" encoding="utf-8"?>
<!-- Generator: Adobe Illustrator 21.1.0, SVG Export Plug-In . SVG Version: 6.00 Build 0)  -->
<svg version="1.1" id="圖層_1" xmlns="http://www.w3.org/2000/svg" xmlns:xlink="http://www.w3.org/1999/xlink" x="0px" y="0px"
	 viewBox="0 0 17.5 15.7" style="enable-background:new 0 0 17.5 15.7;" xml:space="preserve">
<style type="text/css">
	.st0{fill:#4B51E6;}
</style>
<title>幫助中心</title>
<g id="line">
	<path class="st0" d="M8.7,0C3.9,0,0,3.3,0,7.4c0,2,1,3.9,2.5,5.2c-0.2,1.1-0.7,2.7-2.1,3c0,0,4,0.5,5.9-1l0,0
		c0.8,0.2,1.6,0.3,2.4,0.3c4.8,0,8.7-3.3,8.7-7.4S13.5,0,8.7,0z M10,12.1H7.7V9.6H10V12.1z M11.7,6.6c-0.1,0.3-0.2,0.5-0.4,0.7
		c-0.2,0.3-0.5,0.5-0.8,0.8c-0.2,0.1-0.4,0.3-0.5,0.5C9.8,8.7,9.8,8.9,9.8,9.1h-2c0-0.4,0-0.8,0.1-1.2C8,7.6,8.2,7.3,8.4,7.1
		C8.7,6.8,9,6.5,9.2,6.2C9.3,6,9.4,5.7,9.3,5.5c0-0.2-0.1-0.5-0.2-0.7C9,4.7,8.9,4.6,8.7,4.6c-0.6,0-0.9,0.5-0.9,1.6L5.6,5.9
		C6,3.8,7,2.7,8.9,2.7c0.8,0,1.6,0.3,2.1,0.8c0.5,0.6,0.8,1.3,0.8,2C11.8,6,11.8,6.3,11.7,6.6z"/>
</g>
</svg>
