<?xml version="1.0" encoding="utf-8"?>
<!-- Generator: Adobe Illustrator 24.1.3, SVG Export Plug-In . SVG Version: 6.00 Build 0)  -->
<svg version="1.1" id="圖層_1" xmlns="http://www.w3.org/2000/svg" xmlns:xlink="http://www.w3.org/1999/xlink" x="0px" y="0px"
	 viewBox="0 0 12.76 15" style="enable-background:new 0 0 12.76 15;" xml:space="preserve">
<style type="text/css">
	.st0{fill:#c29f64;}
	.st1{fill:#FFFFFF;}
</style>
<g>
	<g>
		<path class="st0" d="M6.37,7.49c-2.06,0-3.74-1.68-3.75-3.74c0-1,0.39-1.94,1.09-2.65C4.42,0.39,5.36,0,6.36,0l0,0c0,0,0,0,0,0
			c1,0,1.94,0.39,2.64,1.09c0.71,0.71,1.1,1.65,1.1,2.65c0,1-0.39,1.94-1.09,2.65C8.31,7.1,7.37,7.49,6.37,7.49
			C6.37,7.49,6.37,7.49,6.37,7.49z M6.36,1C5.63,1,4.94,1.29,4.42,1.81s-0.8,1.21-0.8,1.94c0,1.51,1.23,2.74,2.75,2.74c0,0,0,0,0,0
			c0.73,0,1.42-0.29,1.94-0.81s0.8-1.21,0.8-1.94c0-0.73-0.29-1.42-0.81-1.94C7.79,1.28,7.1,1,6.36,1C6.37,1,6.36,1,6.36,1L6.36,1z"
			/>
		<path class="st0" d="M0,15l0-0.5c0-3.52,2.85-6.38,6.37-6.39l0,0c0,0,0.01,0,0.01,0c1.7,0,3.3,0.66,4.51,1.86
			c1.21,1.2,1.87,2.81,1.88,4.51l0,0.5L0,15z M6.37,9.11c-2.8,0-5.1,2.15-5.35,4.89l10.72-0.01c-0.12-1.25-0.66-2.41-1.56-3.3
			C9.17,9.67,7.82,9.11,6.37,9.11C6.38,9.11,6.38,9.11,6.37,9.11L6.37,9.11z"/>
	</g>
</g>
</svg>
