<?xml version="1.0" encoding="utf-8"?>
<!-- Generator: Adobe Illustrator 24.1.3, SVG Export Plug-In . SVG Version: 6.00 Build 0)  -->
<svg version="1.1" id="圖層_1" xmlns="http://www.w3.org/2000/svg" xmlns:xlink="http://www.w3.org/1999/xlink" x="0px" y="0px"
	 viewBox="0 0 11.24 14.7" style="enable-background:new 0 0 11.24 14.7;" xml:space="preserve">
<style type="text/css">
	.st0{fill:#c29f64;}
	.st1{fill:#FFFFFF;}
</style>
<g>
	<path class="st0" d="M7.97,4.08c-1.81,0-3.27,1.46-3.27,3.27c0,0.69,0.22,1.34,0.59,1.87l-0.36,0.92l1-0.24
		c0.56,0.45,1.26,0.73,2.03,0.73c1.81,0,3.27-1.46,3.27-3.27S9.78,4.08,7.97,4.08z"/>
	<path class="st0" d="M7.92,11.38c-0.17,0-0.33-0.03-0.49-0.05c0,0.13,0,0.25,0,0.38c-2.14,0-4.26,0-6.41,0c0-2.9,0-5.79,0-8.7
		c2.16,0,4.27,0,6.41,0c0,0.13,0,0.25,0,0.37c0.16-0.02,0.33-0.05,0.49-0.05c0.18,0,0.35,0.03,0.53,0.05c0-0.56,0-1.13,0-1.69
		C8.45,0.64,7.81,0,6.75,0C5.07,0,3.38,0,1.7,0C0.63,0,0,0.64,0,1.71c0,2.23,0,4.46,0,6.68c0,1.55,0,3.1,0,4.66
		c0,1,0.66,1.65,1.66,1.65c1.71,0,3.42,0,5.12,0c1.01,0,1.66-0.66,1.66-1.67c0-0.57,0-1.14,0-1.71C8.27,11.35,8.1,11.38,7.92,11.38z
		 M3.2,1.31c0.69,0,1.37,0,2.06,0c0.13,0,0.25,0.02,0.25,0.18c0.01,0.17-0.11,0.2-0.25,0.2c-0.34,0-0.69,0-1.03,0
		c-0.34,0-0.69,0-1.03,0c-0.14,0-0.26-0.04-0.25-0.2C2.95,1.33,3.07,1.31,3.2,1.31z M4.22,13.69c-0.27,0-0.48-0.22-0.48-0.49
		c0.01-0.26,0.22-0.46,0.48-0.46c0.27,0,0.47,0.21,0.48,0.47C4.71,13.48,4.49,13.69,4.22,13.69z"/>
	<circle class="st1" cx="6.24" cy="7.35" r="0.41"/>
	<circle class="st1" cx="8.03" cy="7.35" r="0.41"/>
	<circle class="st1" cx="9.82" cy="7.35" r="0.41"/>
</g>
</svg>
