<?xml version="1.0" encoding="utf-8"?>
<!-- Generator: Adobe Illustrator 24.1.3, SVG Export Plug-In . SVG Version: 6.00 Build 0)  -->
<svg version="1.1" id="圖層_1" xmlns="http://www.w3.org/2000/svg" xmlns:xlink="http://www.w3.org/1999/xlink" x="0px" y="0px"
	 viewBox="0 0 14 11.58" style="enable-background:new 0 0 14 11.58;" xml:space="preserve">
<style type="text/css">
	.st0{fill:#c29f64;}
	.st1{fill:#FFFFFF;}
</style>
<g>
	<g>
		<g>
			<path class="st0" d="M11.98,0H2.02C0.91,0,0,0.91,0,2.02v7.54c0,1.11,0.91,2.02,2.02,2.02h9.96c1.11,0,2.02-0.91,2.02-2.02V2.02
				C14,0.91,13.09,0,11.98,0z M13.19,7h-2.96C9.56,7,9.02,6.46,9.02,5.79s0.54-1.21,1.21-1.21h2.96L13.19,7L13.19,7z M13.19,3.77
				h-2.96c-1.11,0-2.02,0.91-2.02,2.02s0.91,2.02,2.02,2.02h2.96v1.75c0,0.67-0.54,1.21-1.21,1.21H2.02c-0.67,0-1.21-0.54-1.21-1.21
				V2.02c0-0.67,0.54-1.21,1.21-1.21h9.96c0.67,0,1.21,0.54,1.21,1.21V3.77L13.19,3.77z"/>
		</g>
	</g>
	<g>
		<g>
			<path class="st0" d="M10.77,5.38h-0.54c-0.22,0-0.4,0.18-0.4,0.4c0,0.22,0.18,0.4,0.4,0.4h0.54c0.22,0,0.4-0.18,0.4-0.4
				C11.17,5.57,10.99,5.38,10.77,5.38z"/>
		</g>
	</g>
</g>
</svg>
