<?xml version="1.0" encoding="utf-8"?>
<!-- Generator: Adobe Illustrator 24.1.3, SVG Export Plug-In . SVG Version: 6.00 Build 0)  -->
<svg version="1.1" id="圖層_1" xmlns="http://www.w3.org/2000/svg" xmlns:xlink="http://www.w3.org/1999/xlink" x="0px" y="0px"
	 viewBox="0 0 16 14.24" style="enable-background:new 0 0 16 14.24;" xml:space="preserve">
<style type="text/css">
	.st0{fill:#c29f64;}
	.st1{fill:#FFFFFF;}
</style>
<g>
	<g>
		<path class="st0" d="M10.54,0c1.01,0.21,1.47,0.82,1.67,1.69c0.27,1.15,0.62,2.29,0.94,3.44c0.03,0.1,0.05,0.2,0.08,0.34
			c-0.18,0-0.32,0-0.46,0c-2.39,0-4.78-0.01-7.17,0c-1.35,0-2.39,0.5-2.97,1.6c-0.2,0.39-0.24,0.85-0.31,1.28
			C2.28,8.61,2.32,8.88,2.32,9.23C1.79,9.01,1.45,8.72,1.3,8.3C1.14,7.86,1.03,7.4,0.9,6.95C0.62,5.94,0.33,4.93,0.06,3.92
			c-0.26-0.99,0.28-1.8,1.4-2.05c2.8-0.61,5.61-1.21,8.41-1.81C9.94,0.05,9.99,0.02,10.04,0C10.21,0,10.38,0,10.54,0z M8.85,2.82
			c0.18,0.64,0.34,1.24,0.52,1.88c0.73-0.16,1.41-0.31,2.13-0.46c-0.18-0.64-0.35-1.25-0.53-1.87C10.25,2.51,9.58,2.66,8.85,2.82z"
			/>
		<path class="st0" d="M5.16,14.24c-0.29-0.12-0.6-0.21-0.86-0.37c-0.48-0.3-0.71-0.74-0.71-1.25c-0.01-1.48-0.02-2.95,0-4.43
			C3.6,7.27,4.4,6.59,5.46,6.59c2.88-0.01,5.76-0.01,8.64,0c0.93,0,1.6,0.48,1.84,1.28c0.01,0.04,0.04,0.07,0.06,0.11
			c0,1.62,0,3.25,0,4.87c-0.22,0.74-0.74,1.2-1.58,1.39C11.33,14.24,8.25,14.24,5.16,14.24z M4.56,10.4c0,0.68,0,1.32,0,1.96
			c0,0.76,0.28,1,1.14,1c2.43,0,4.85,0,7.28,0c0.39,0,0.79,0.01,1.18-0.01c0.49-0.02,0.82-0.31,0.84-0.75
			c0.01-0.26,0.01-0.53,0.01-0.79c0-0.47,0-0.94,0-1.42C11.51,10.4,8.06,10.4,4.56,10.4z M14.98,8.77c0.14-0.89-0.12-1.36-1.28-1.34
			c-1.94,0.04-3.87,0.01-5.81,0.01c-0.8,0-1.6-0.01-2.4,0C5.01,7.45,4.65,7.69,4.59,8.04C4.55,8.27,4.58,8.51,4.58,8.77
			C8.06,8.77,11.51,8.77,14.98,8.77z"/>
	</g>
</g>
</svg>
