<svg id="圖層_1" data-name="圖層 1" xmlns="http://www.w3.org/2000/svg" viewBox="0 0 20 20"><defs><style>.cls-1{fill:#e11515;}</style></defs><title>邀請會員SVG</title><path class="cls-1" d="M17,1.93a.7.7,0,0,1,.11.86c-.15.3-.26.61-.4.91A.56.56,0,0,1,16,4a.6.6,0,0,1-.29-.81c.13-.29.27-.58.38-.88a.7.7,0,0,1,.69-.53Z"/><path class="cls-1" d="M17.7,6.1a.63.63,0,0,1-.42-.56A.54.54,0,0,1,17.6,5c.53-.23,1.07-.44,1.61-.64a.57.57,0,0,1,.72.36.59.59,0,0,1-.31.74c-.52.22-1.05.43-1.58.62A1.09,1.09,0,0,1,17.7,6.1Z"/><path class="cls-1" d="M18.27,8.92l-.52-.24a.6.6,0,0,1-.29-.78.57.57,0,0,1,.74-.3l1.1.49a.59.59,0,0,1,.28.78.58.58,0,0,1-.76.29Z"/><path class="cls-1" d="M17.32,10.67c-.51-1.36-1-2.71-1.56-4.06L14,2A1.68,1.68,0,0,0,12.81.88,1.74,1.74,0,0,0,10.63,2.8a.33.33,0,0,1-.06.19A12.16,12.16,0,0,1,8.42,5.37,12.73,12.73,0,0,1,4.64,7.54C3.48,8,2.32,8.45,1.17,8.92a1.73,1.73,0,0,0-1,2.27c.27.76.56,1.52.87,2.27a1.7,1.7,0,0,0,2.22,1c.17-.06.34-.14.53-.22l.6,1.55c.31.8.59,1.61.93,2.39a1.71,1.71,0,0,0,2.63.67,1.75,1.75,0,0,0,.57-2c-.2-.56-.44-1.11-.67-1.7l.49-.17a1.78,1.78,0,0,0,1-2.4c0-.09-.07-.19-.11-.29a11.61,11.61,0,0,1,4.91.05.45.45,0,0,1,.19.15,1.73,1.73,0,0,0,2,.57A1.78,1.78,0,0,0,17.32,10.67ZM2.93,13.28a.59.59,0,0,1-.88-.4c-.26-.66-.51-1.33-.77-2A.6.6,0,0,1,1.66,10L5.17,8.6l.15,0,1.26,3.27-.18.08ZM7.3,17.8a.54.54,0,0,1-.56.17.53.53,0,0,1-.39-.35c-.49-1.27-1-2.55-1.49-3.86l.23-.07.83-.33a.3.3,0,0,1,.06.11c.48,1.23.95,2.46,1.42,3.69A.59.59,0,0,1,7.3,17.8ZM7.46,14c-.13-.36-.27-.71-.42-1.09l1-.37C8.49,13.36,8.48,13.7,7.46,14Zm.27-2.58C7.3,10.3,6.88,9.19,6.44,8.06a13.24,13.24,0,0,0,4.64-3.77L13.66,11A13,13,0,0,0,7.73,11.42Z"/><path class="cls-1" d="M4.58,10.25a.66.66,0,0,1,.35.55.56.56,0,0,1-.33.55c-.38.17-.76.32-1.15.46a.57.57,0,0,1-.71-.34A.58.58,0,0,1,3,10.72c.39-.17.78-.32,1.18-.46A1.27,1.27,0,0,1,4.58,10.25Z"/></svg>