<?xml version="1.0" encoding="utf-8"?>
<!-- Generator: Adobe Illustrator 24.1.3, SVG Export Plug-In . SVG Version: 6.00 Build 0)  -->
<svg version="1.1" id="圖層_1" xmlns="http://www.w3.org/2000/svg" xmlns:xlink="http://www.w3.org/1999/xlink" x="0px" y="0px"
	 viewBox="0 0 16 16" style="enable-background:new 0 0 16 16;" xml:space="preserve">
<style type="text/css">
	.st0{fill:#c29f64;}
	.st1{fill:#FFFFFF;}
</style>
<path class="st0" d="M8,16c-4.41,0-8-3.59-8-8s3.59-8,8-8s8,3.59,8,8S12.41,16,8,16z M8,1C4.14,1,1,4.14,1,8s3.14,7,7,7
	c3.86,0,7-3.14,7-7S11.86,1,8,1z M13.21,11.49H2.79V6.29l2.56,0.69L8,4.29l2.65,2.68l2.56-0.69V11.49z M3.79,10.49h8.41v-2.9
	l-1.86,0.5L8,5.72L5.66,8.09l-1.86-0.5V10.49z"/>
</svg>
