<?xml version="1.0" encoding="utf-8"?>
<!-- Generator: Adobe Illustrator 24.1.3, SVG Export Plug-In . SVG Version: 6.00 Build 0)  -->
<svg version="1.1" id="圖層_1" xmlns="http://www.w3.org/2000/svg" xmlns:xlink="http://www.w3.org/1999/xlink" x="0px" y="0px"
	 viewBox="0 0 12.14 14" style="enable-background:new 0 0 12.14 14;" xml:space="preserve">
<style type="text/css">
	.st0{fill:#c29f64;}
	.st1{fill:#FFFFFF;}
</style>
<g>
	<path class="st0" d="M9.64,0c0.14,0.03,0.28,0.07,0.42,0.1c0.98,0.25,1.72,1.14,1.73,2.15c0.02,1.97,0.01,3.93,0,5.9
		c0,0.34-0.21,0.56-0.53,0.57c-0.31,0.01-0.52-0.21-0.54-0.55c-0.01-0.1,0-0.19,0-0.29c0-1.81,0-3.62,0-5.43
		c0-0.81-0.52-1.34-1.32-1.34c-2.33,0-4.67-0.01-7,0c-0.79,0-1.31,0.52-1.31,1.31c0,3.06,0,6.12,0,9.18c0,0.8,0.51,1.31,1.3,1.31
		c1.55,0.01,3.1,0,4.65,0c0.47,0,0.75,0.3,0.62,0.69c-0.05,0.16-0.22,0.27-0.34,0.4c-1.76,0-3.52,0-5.29,0
		c-0.38-0.17-0.78-0.28-1.12-0.51C0.38,13.14,0.14,12.58,0,11.97c0-3.31,0-6.62,0-9.93c0.02-0.05,0.04-0.1,0.06-0.16
		c0.23-0.94,0.81-1.53,1.73-1.79C1.91,0.05,2.03,0.03,2.15,0C4.65,0,7.15,0,9.64,0z"/>
	<path class="st0" d="M12.14,11.56c-0.13,0.49-0.29,0.96-0.65,1.34c-0.79,0.85-2.02,1.06-3.02,0.49c-0.98-0.55-1.47-1.72-1.17-2.78
		c0.31-1.13,1.32-1.88,2.45-1.84c1.14,0.04,2.1,0.86,2.33,1.99c0.01,0.06,0.03,0.11,0.05,0.16C12.14,11.13,12.14,11.35,12.14,11.56z
		 M9.19,11.62c0.49,0,0.95,0,1.41,0c0.25,0,0.42-0.16,0.42-0.38c0-0.21-0.17-0.37-0.42-0.38c-0.2-0.01-0.4,0-0.63,0
		c0-0.31,0.01-0.58,0-0.84C9.95,9.79,9.82,9.63,9.57,9.64C9.34,9.64,9.2,9.79,9.2,10C9.18,10.53,9.19,11.06,9.19,11.62z"/>
	<path class="st0" d="M5.88,3.43c0.92,0,1.84,0,2.76,0c0.39,0,0.63,0.2,0.64,0.52C9.3,4.27,9.05,4.51,8.65,4.51
		c-1.85,0-3.7,0-5.55,0c-0.39,0-0.61-0.22-0.61-0.55C2.5,3.62,2.73,3.43,3.12,3.43C4.04,3.42,4.96,3.43,5.88,3.43z"/>
	<path class="st0" d="M5.9,7.45c-0.92,0-1.84,0-2.76,0c-0.42,0-0.64-0.19-0.64-0.54c0-0.34,0.23-0.53,0.65-0.53
		c1.84,0,3.68,0,5.52,0c0.5,0,0.77,0.42,0.54,0.81C9.08,7.41,8.88,7.45,8.66,7.45C7.74,7.45,6.82,7.45,5.9,7.45z"/>
	<path class="st0" d="M4.18,10.41c-0.38,0-0.75,0-1.13,0C2.71,10.4,2.49,10.18,2.5,9.87c0-0.3,0.21-0.52,0.53-0.53
		c0.77-0.01,1.54-0.01,2.32,0c0.34,0,0.55,0.23,0.54,0.55c-0.01,0.32-0.22,0.51-0.57,0.51C4.93,10.41,4.55,10.41,4.18,10.41z"/>
</g>
</svg>
