<svg id="圖層_1" data-name="圖層 1" xmlns="http://www.w3.org/2000/svg" viewBox="0 0 20 20"><defs><style>.cls-1{fill:#c29f64;}</style></defs><title>dividend_ic</title><path class="cls-1" d="M19.87,16.8l-6.3-4.52.13-.12c.36-.26.72-.51,1.07-.77a.37.37,0,0,0,.13-.25q0-3.91,0-7.81a.71.71,0,0,0-.74-.76H5.71A.71.71,0,0,0,5,3.32q0,3.91,0,7.81a.37.37,0,0,0,.13.25c.39.3.79.58,1.21.88L0,16.8v-.26q0-4,0-8A2.17,2.17,0,0,1,.94,6.64L3.38,4.89a.37.37,0,0,0,.18-.35A11.82,11.82,0,0,1,3.57,3,2.12,2.12,0,0,1,5.73,1.1h8.36a2.16,2.16,0,0,1,2.23,2.3c0,.37,0,.75,0,1.12a.4.4,0,0,0,.19.39C17.29,5.45,18,6,18.83,6.56a2.32,2.32,0,0,1,1.05,2.06c0,2.62,0,5.24,0,7.86ZM3.54,6.55,1.78,7.82A.67.67,0,0,0,1.78,9l1.6,1.15.16.1Zm12.8,0v3.7c.64-.46,1.27-.89,1.87-1.36a.62.62,0,0,0,0-1C17.59,7.44,17,7,16.34,6.56Z"/><path class="cls-1" d="M.72,18.07l3-2.14,4.16-3a.78.78,0,0,1,.49-.16h3.26a.56.56,0,0,1,.31.09L19.08,18l.06.06a1.94,1.94,0,0,1-1.05.52,3.07,3.07,0,0,1-.51,0H2.29A2.23,2.23,0,0,1,.72,18.07Z"/><path class="cls-1" d="M11.33,6.62a3.65,3.65,0,0,1-.42-.19,1.81,1.81,0,0,0-1.12-.29.87.87,0,0,0-.44.17.24.24,0,0,0,.07.45c.25.09.51.16.76.24a8.39,8.39,0,0,1,.84.28,1.57,1.57,0,0,1,1,1.65,1.72,1.72,0,0,1-1.19,1.62.34.34,0,0,0-.27.27.69.69,0,0,1-1.35,0c0-.17-.12-.2-.25-.26a5.77,5.77,0,0,1-.85-.39.72.72,0,0,1-.25-1,.69.69,0,0,1,1-.23,1.94,1.94,0,0,0,1.18.32.88.88,0,0,0,.43-.15.25.25,0,0,0-.06-.47c-.26-.1-.52-.16-.78-.24A8.75,8.75,0,0,1,8.75,8a1.74,1.74,0,0,1-.25-3,1.15,1.15,0,0,1,.28-.18.76.76,0,0,0,.55-.52A.59.59,0,0,1,10,4a.66.66,0,0,1,.6.53c0,.17.13.21.27.27a6,6,0,0,1,.89.44A.7.7,0,0,1,12,6.1.78.78,0,0,1,11.33,6.62Z"/></svg>