<?xml version="1.0" encoding="utf-8"?>
<!-- Generator: Adobe Illustrator 24.1.3, SVG Export Plug-In . SVG Version: 6.00 Build 0)  -->
<svg version="1.1" id="圖層_1" xmlns="http://www.w3.org/2000/svg" xmlns:xlink="http://www.w3.org/1999/xlink" x="0px" y="0px"
	 viewBox="0 0 11.68 16.49" style="enable-background:new 0 0 11.68 16.49;" xml:space="preserve">
<style type="text/css">
	.st0{fill:#c29f64;}
	.st1{fill:#FFFFFF;}
</style>
<g>
	<path class="st0" d="M5.97,16.41c-0.23,0.06-0.46,0.11-0.7,0.06c-0.34-0.07-0.61-0.24-0.81-0.53c-0.04-0.06-0.08-0.13-0.12-0.19
		c-1.36-2.41-2.71-4.82-4.07-7.23C-0.01,8.01-0.08,7.5,0.09,6.94c0.33-1.09,0.65-2.19,0.98-3.28c0.17-0.56,0.52-0.92,1.1-1.03
		c0.14-0.03,0.29-0.02,0.43,0c0.12,0.02,0.18,0,0.25-0.1C3.33,1.84,3.9,1.25,4.57,0.75C5.04,0.4,5.54,0.13,6.12,0.02
		c0.84-0.15,1.52,0.38,1.57,1.24c0.04,0.67-0.16,1.28-0.43,1.88C7.14,3.39,7.01,3.62,6.88,3.87c0.54,0.48,0.79,1.15,1.14,1.76
		c1.16,2.04,2.31,4.09,3.46,6.14c0.27,0.48,0.29,0.95-0.03,1.41c-0.08,0.11-0.19,0.2-0.29,0.3C9.43,14.47,7.7,15.44,5.97,16.41z
		 M4.28,5.26c0.05-0.05,0.09-0.08,0.13-0.11c0.01-0.01,0.02-0.02,0.03-0.03c0.94-0.83,1.69-1.8,2.09-3
		c0.09-0.27,0.15-0.54,0.11-0.83C6.62,1.1,6.55,1.05,6.36,1.06C6.07,1.07,5.81,1.2,5.57,1.35C5.1,1.62,4.7,1.99,4.32,2.38
		C4.16,2.56,4.02,2.74,3.87,2.91C4.33,3.06,4.78,3.2,5.23,3.34c0,0,0,0.01-0.01,0.02C4.84,3.9,4.41,4.39,3.91,4.82
		C3.85,4.87,3.8,4.88,3.72,4.85C3.39,4.75,3.07,4.79,2.79,5.01c-0.35,0.27-0.5,0.76-0.35,1.15c0.18,0.46,0.6,0.73,1.08,0.69
		c0.45-0.04,0.82-0.38,0.91-0.83C4.47,5.75,4.41,5.5,4.28,5.26z M5.32,9.92C5.03,9.41,4.38,9.22,3.86,9.5
		c-0.52,0.28-0.71,0.95-0.42,1.47c0.29,0.51,0.96,0.7,1.47,0.41C5.43,11.09,5.61,10.43,5.32,9.92z M7.25,9.69
		c-0.52,0.27-0.71,0.93-0.44,1.45c0.28,0.53,0.93,0.72,1.46,0.44c0.52-0.28,0.71-0.94,0.43-1.47C8.43,9.6,7.77,9.41,7.25,9.69z
		 M6.71,8.2C6.62,8.17,6.53,8.11,6.44,8.11C6.29,8.12,6.23,8.23,6.2,8.37c-0.26,1.42-0.52,2.84-0.78,4.25
		c-0.01,0.06-0.01,0.12,0,0.18c0.04,0.12,0.12,0.19,0.25,0.18c0.13,0,0.23-0.08,0.26-0.23c0.27-1.44,0.53-2.88,0.79-4.32
		C6.73,8.37,6.72,8.3,6.71,8.2z"/>
	<path class="st0" d="M4.17,10.05c0.21-0.12,0.49-0.04,0.61,0.17c0.12,0.21,0.04,0.49-0.17,0.61c-0.21,0.12-0.49,0.04-0.6-0.17
		C3.87,10.45,3.95,10.17,4.17,10.05z"/>
	<path class="st0" d="M8.14,10.41c0.12,0.21,0.05,0.48-0.16,0.61c-0.21,0.12-0.49,0.05-0.61-0.16c-0.12-0.21-0.05-0.49,0.16-0.61
		C7.74,10.13,8.02,10.2,8.14,10.41z"/>
</g>
</svg>
