<?xml version="1.0" encoding="utf-8"?>
<!-- Generator: Adobe Illustrator 24.1.3, SVG Export Plug-In . SVG Version: 6.00 Build 0)  -->
<svg version="1.1" id="圖層_1" xmlns="http://www.w3.org/2000/svg" xmlns:xlink="http://www.w3.org/1999/xlink" x="0px" y="0px"
	 viewBox="0 0 12.69 9.93" style="enable-background:new 0 0 12.69 9.93;" xml:space="preserve">
<style type="text/css">
	.st0{fill:#c29f64;}
	.st1{fill:#FFFFFF;}
</style>
<g>
	<path class="st0" d="M10.77,9.93H1.92C0.86,9.93,0,9.07,0,8.01v-6.1C0,0.86,0.86,0,1.92,0h8.85c1.06,0,1.92,0.86,1.92,1.92v6.1
		C12.69,9.07,11.83,9.93,10.77,9.93z M1.92,0.55c-0.75,0-1.37,0.61-1.37,1.37v6.1c0,0.75,0.61,1.37,1.37,1.37h8.85
		c0.75,0,1.37-0.61,1.37-1.37v-6.1c0-0.75-0.61-1.37-1.37-1.37H1.92z"/>
	<polygon class="st0" points="6.35,6.18 0.7,0.84 1.08,0.44 6.34,5.41 11.39,0.36 11.78,0.75 	"/>
	
		<rect x="9.38" y="3.78" transform="matrix(0.7071 -0.7071 0.7071 0.7071 -2.0484 8.8461)" class="st0" width="0.55" height="6.24"/>
	
		<rect x="-0.09" y="6.62" transform="matrix(0.7071 -0.7071 0.7071 0.7071 -3.9873 4.1652)" class="st0" width="6.24" height="0.55"/>
</g>
</svg>
