<svg xmlns="http://www.w3.org/2000/svg" xmlns:xlink="http://www.w3.org/1999/xlink" viewBox="0 0 23 18"><defs><style>.cls-1{fill:none;}.cls-2{clip-path:url(#clip-path);}.cls-3{fill:#f6cb27;}</style><clipPath id="clip-path"><rect class="cls-1" x="-2003" y="-6" width="1920" height="600"/></clipPath></defs><title>home</title><g id="menu"><path class="cls-3" d="M19.52,18h-16A3.48,3.48,0,0,1,0,14.52v-11A3.48,3.48,0,0,1,3.48,0h16A3.48,3.48,0,0,1,23,3.48v11A3.48,3.48,0,0,1,19.52,18ZM3.48,1A2.48,2.48,0,0,0,1,3.48v11A2.48,2.48,0,0,0,3.48,17h16A2.48,2.48,0,0,0,22,14.52v-11A2.48,2.48,0,0,0,19.52,1Z"/><polygon class="cls-3" points="11.51 11.2 1.27 1.53 1.96 0.8 11.49 9.8 20.65 0.65 21.35 1.35 11.51 11.2"/><rect class="cls-3" x="17" y="6.84" width="1" height="11.31" transform="translate(-3.71 16.04) rotate(-45)"/><rect class="cls-3" x="-0.16" y="12" width="11.31" height="1" transform="translate(-7.23 7.55) rotate(-45)"/></g></svg>