<svg xmlns="http://www.w3.org/2000/svg" viewBox="0 0 27.54 26.05"><defs><style>.cls-1{fill:#fff;}</style></defs><title>home</title><g id="menu"><path class="cls-1" d="M13.76,0C6.16,0,0,4.9,0,11,0,16.51,5.21,21.1,12,21.8a.77.77,0,0,1,.67.83l-.29,2.58A.75.75,0,0,0,13.4,26c5.7-2.75,9.11-5.58,11.14-8,.37-.45,1.58-2.14,1.83-2.58a9.28,9.28,0,0,0,1.05-3c.06-.33.09-.61.11-.83s0-.9,0-1.07C27.18,4.63,21.15,0,13.76,0ZM8.31,14.57H5.49a.7.7,0,0,1-.7-.7V8.55a.7.7,0,0,1,.7-.7.71.71,0,0,1,.71.7v4.62H8.31a.7.7,0,0,1,0,1.4ZM11.09,14a.55.55,0,0,1-.55.55h-.31A.55.55,0,0,1,9.68,14V8.4a.55.55,0,0,1,.55-.55h.31a.55.55,0,0,1,.55.55Zm6.55-.18a.72.72,0,0,1-.71.73.67.67,0,0,1-.48-.19s-2.9-3.74-2.9-3.74v3.23a.7.7,0,0,1-.7.7.7.7,0,0,1-.71-.7V8.58a.73.73,0,0,1,.68-.73.69.69,0,0,1,.55.24c.05,0,2.86,3.71,2.86,3.71V8.55a.7.7,0,0,1,.7-.7.71.71,0,0,1,.71.7Zm4.57-3.33a.7.7,0,0,1,.71.7.71.71,0,0,1-.71.71H20.1v1.25h2.11a.7.7,0,1,1,0,1.4H19.4a.7.7,0,0,1-.71-.7V8.55a.71.71,0,0,1,.71-.7h2.81a.71.71,0,1,1,0,1.41H20.1v1.25Z"/></g></svg>