<svg xmlns="http://www.w3.org/2000/svg" xmlns:xlink="http://www.w3.org/1999/xlink" viewBox="0 0 20.39 17.67"><defs><style>.cls-1{fill:url(#未命名漸層_12);}</style><radialGradient id="未命名漸層_12" cx="13.11" cy="5.92" r="14.34" gradientUnits="userSpaceOnUse"><stop offset="0" stop-color="#ff2ebd"/><stop offset="1" stop-color="#ff368e"/></radialGradient></defs><title>i88_slot_內頁</title><g id="banner2"><path class="cls-1" d="M5.67,0A5.83,5.83,0,0,1,9.59,1.49l.3.26a.4.4,0,0,0,.6,0l.71-.59a5.72,5.72,0,0,1,6.87,0,6.11,6.11,0,0,1,2,2.92,6.45,6.45,0,0,1,.26,2.51c0,.3,0,.6-.07.9a2.86,2.86,0,0,1-.09.51,11.42,11.42,0,0,1-1.47,3.26,14.62,14.62,0,0,1-2.86,3.07,21.38,21.38,0,0,1-3.59,2.36c-.6.32-1.22.62-1.83.93a.6.6,0,0,1-.58,0,23.9,23.9,0,0,1-3.54-1.95c-.64-.45-1.31-.86-1.91-1.36A19.41,19.41,0,0,1,2.9,12.8,11,11,0,0,1,.27,8.25,4.6,4.6,0,0,1,0,6.87c0-.41,0-.82,0-1.24a5.06,5.06,0,0,1,.11-.86,5.8,5.8,0,0,1,3-4.11A5,5,0,0,1,5.67,0Z"/></g></svg>
