<?xml version="1.0" encoding="utf-8"?>
<!-- Generator: Adobe Illustrator 24.1.3, SVG Export Plug-In . SVG Version: 6.00 Build 0)  -->
<svg version="1.1" id="圖層_1" xmlns="http://www.w3.org/2000/svg" xmlns:xlink="http://www.w3.org/1999/xlink" x="0px" y="0px"
	 viewBox="0 0 19.4 18.7" style="enable-background:new 0 0 19.4 18.7;" xml:space="preserve">
<style type="text/css">
	.st0{fill:#FFFFFF;}
</style>
<path class="st0" d="M15.6,2.3H3.8c-1.6,0-2.9,1.3-2.9,2.9v8.2c0,1.6,1.3,2.9,2.9,2.9h11.9c1.6,0,2.9-1.3,2.9-2.9V5.3
	C18.6,3.7,17.3,2.3,15.6,2.3z M17.1,13.5c0,0.1,0,0.2,0,0.4L12.2,9l4.6-4.6C17,4.7,17.1,5,17.1,5.3V13.5z M2.3,13.5V5.3
	c0-0.2,0.1-0.4,0.1-0.6l4.7,4.4l-4.8,4.8C2.3,13.7,2.3,13.6,2.3,13.5z M9.7,9.4L3.7,3.8c0,0,0,0,0,0h11.5L9.7,9.4z M8.2,10.1
	l1.5,1.4l1.5-1.5l4.8,4.8c-0.1,0-0.2,0-0.4,0H3.8c-0.1,0-0.2,0-0.4,0L8.2,10.1z"/>
</svg>
