<svg xmlns="http://www.w3.org/2000/svg" viewBox="0 0 19.4 18.74"><defs><style>.cls-1{fill:#fff;}</style></defs><title>00</title><g id="cnt"><path class="cls-1" d="M15.08,2.15A2,2,0,0,0,12.92,0H6.48A2,2,0,0,0,4.32,2.18V16.63a2,2,0,0,0,2.11,2.11H13a2,2,0,0,0,2.12-2.13V10.68h0ZM8.39,1.67H11c.17,0,.32,0,.32.22s-.14.26-.32.25H8.39c-.18,0-.33,0-.32-.26S8.23,1.67,8.39,1.67ZM9.7,17.45a.61.61,0,0,1-.61-.63.6.6,0,0,1,.62-.59.59.59,0,0,1,.6.6A.6.6,0,0,1,9.7,17.45Zm4.08-2.53H5.62V3.83h8.16V14.92Z"/></g></svg>