<svg id="圖層_1" data-name="圖層 1" xmlns="http://www.w3.org/2000/svg" viewBox="0 0 11.53 15.01"><defs><style>.cls-1{fill:#999;}</style></defs><title>pwd</title><g id="menu"><path class="cls-1" d="M10.72,6.06h-.3V4.69A4.67,4.67,0,0,0,5.9,0H5.63A4.67,4.67,0,0,0,1.11,4.69V6.06H.82A1,1,0,0,0,0,7.1V14a1,1,0,0,0,.82,1h9.9a1,1,0,0,0,.81-1V7.1a.94.94,0,0,0-.81-1Zm-4,4.46V12.6a.44.44,0,0,1-.43.44h-1a.44.44,0,0,1-.44-.44V10.52a1.25,1.25,0,0,1,0-1.77,1.23,1.23,0,0,1,.79-.36H5.9a1.25,1.25,0,0,1,.79,2.13ZM8.5,6.06H3V4.69a2.73,2.73,0,0,1,5.46,0Z"/></g></svg>