<svg id="圖層_1" data-name="圖層 1" xmlns="http://www.w3.org/2000/svg" viewBox="0 0 14.5 14.5"><defs><style>.cls-1{fill:#999;}.cls-2{fill:none;stroke:#999;stroke-miterlimit:10;}</style></defs><title>question</title><g id="menu"><path class="cls-1" d="M7.5,9.7H6.59V8.47A1.25,1.25,0,0,1,6.75,8,1.28,1.28,0,0,1,7,7.6a3.69,3.69,0,0,1,.67-.44,5.1,5.1,0,0,0,.8-.5A1.61,1.61,0,0,0,9,5.46a1.36,1.36,0,0,0-.5-1.14,1.88,1.88,0,0,0-1.23-.41c-1.08,0-1.74.62-2,1.87l-1-.2A2.77,2.77,0,0,1,7.21,3h.11a3,3,0,0,1,2,.69,2.29,2.29,0,0,1,.78,1.78A2.51,2.51,0,0,1,8.52,7.75a3.26,3.26,0,0,0-.87.59A1.18,1.18,0,0,0,7.49,9Zm.22.91v1.25H6.43V10.61Z"/><circle class="cls-2" cx="7.25" cy="7.25" r="6.75"/></g></svg>