<svg xmlns="http://www.w3.org/2000/svg" viewBox="0 0 42.93 42.93"><defs><style>.cls-1{fill:#cca172;}</style></defs><title>註冊</title><g id="圖層_6" data-name="圖層 6"><path class="cls-1" d="M21.46,21a6.66,6.66,0,0,0,6.66-6.66,6.43,6.43,0,0,0-1.95-4.7,6.65,6.65,0,0,0-9.41,0,6.43,6.43,0,0,0-2,4.7A6.66,6.66,0,0,0,21.46,21ZM17.9,10.74a5.06,5.06,0,0,1,7.13,0A4.83,4.83,0,0,1,26.5,14.3a5,5,0,0,1-5,5,5,5,0,0,1-5-5A4.83,4.83,0,0,1,17.9,10.74Z"/><path class="cls-1" d="M32.94,28.9a17.59,17.59,0,0,0-.23-1.75,13.74,13.74,0,0,0-.43-1.76,9,9,0,0,0-.72-1.63,6.07,6.07,0,0,0-1.09-1.42,4.76,4.76,0,0,0-1.56-1,5.43,5.43,0,0,0-2-.36,2,2,0,0,0-1.08.45c-.32.22-.7.46-1.13.73a6.24,6.24,0,0,1-1.45.64,5.64,5.64,0,0,1-3.57,0,6.34,6.34,0,0,1-1.46-.64c-.42-.27-.8-.51-1.12-.73A2,2,0,0,0,16,21a5.38,5.38,0,0,0-2,.36,4.76,4.76,0,0,0-1.56,1,5.81,5.81,0,0,0-1.09,1.42,8.36,8.36,0,0,0-.72,1.63,12.25,12.25,0,0,0-.43,1.76A17.59,17.59,0,0,0,10,28.9c0,.52-.05,1.07-.05,1.63A4.6,4.6,0,0,0,11.3,34a4.89,4.89,0,0,0,3.51,1.28H28.12A4.91,4.91,0,0,0,31.63,34,4.6,4.6,0,0,0,33,30.53C33,30,33,29.42,32.94,28.9Zm-2.43,3.93a3.3,3.3,0,0,1-2.39.83H14.81a3.3,3.3,0,0,1-2.39-.83,3,3,0,0,1-.86-2.3c0-.52,0-1,0-1.52a14.06,14.06,0,0,1,.2-1.57,12.13,12.13,0,0,1,.38-1.55,6.51,6.51,0,0,1,.59-1.33,4.34,4.34,0,0,1,.8-1,3.08,3.08,0,0,1,1-.65,3.68,3.68,0,0,1,1.27-.24,2.44,2.44,0,0,1,.32.19l1.14.74a8.07,8.07,0,0,0,1.83.81,7.24,7.24,0,0,0,4.57,0,8.07,8.07,0,0,0,1.83-.81l1.14-.74a2.44,2.44,0,0,1,.32-.19,3.68,3.68,0,0,1,1.27.24,3.08,3.08,0,0,1,1,.65,4.34,4.34,0,0,1,.8,1,6.51,6.51,0,0,1,.59,1.33,12.13,12.13,0,0,1,.38,1.55,14.06,14.06,0,0,1,.2,1.57h0c0,.49.05,1,.05,1.52A3,3,0,0,1,30.51,32.83Z"/><path class="cls-1" d="M21.46,42.93A21.47,21.47,0,1,1,42.93,21.46,21.49,21.49,0,0,1,21.46,42.93Zm0-41.45a20,20,0,1,0,20,20A20,20,0,0,0,21.46,1.48Z"/></g></svg>