<svg id="圖層_1" data-name="圖層 1" xmlns="http://www.w3.org/2000/svg" viewBox="0 0 15.94 15.94"><defs><style>.cls-1{fill:#c69c6d;}</style></defs><title>未命名-1</title><path class="cls-1" d="M8,15.94a8,8,0,1,1,8-7.91A8,8,0,0,1,8,15.94Zm5.66-8A5.64,5.64,0,1,0,8,13.6,5.63,5.63,0,0,0,13.61,8Z"/><path class="cls-1" d="M8,6.64h3.25c.73,0,.74,0,.74.72V8.75c0,.46-.08.54-.55.54-1,0-2,0-3,0H8c0,.64,0,1.23,0,1.82a.63.63,0,0,1-.22.46c-.09,0-.34-.06-.45-.17-1-1-2.08-2.07-3.12-3.11-.24-.23-.22-.43,0-.66,1-1,2.07-2.08,3.12-3.11a.59.59,0,0,1,.45-.15A.54.54,0,0,1,8,4.79C8,5.39,8,6,8,6.64Z"/></svg>