<svg xmlns="http://www.w3.org/2000/svg" xmlns:xlink="http://www.w3.org/1999/xlink" viewBox="0 0 20.23 20.16"><defs><style>.cls-1{fill:none;}.cls-2{clip-path:url(#clip-path);}.cls-3{fill:#f6cb27;}</style><clipPath id="clip-path"><rect class="cls-1" x="-2004.77" y="70.61" width="1920" height="600"/></clipPath></defs><title>home</title><g id="menu"><path class="cls-3" d="M10.1,18.48H2.54a.85.85,0,0,1-.84-.84l0-15.12a.84.84,0,0,1,.84-.84h7.56a.85.85,0,0,0,.84-.84A.85.85,0,0,0,10.07,0H2.52A2.52,2.52,0,0,0,0,2.53L0,17.65a2.51,2.51,0,0,0,2.52,2.51H10.1a.84.84,0,0,0,.84-.84A.83.83,0,0,0,10.1,18.48Z"/><path class="cls-3" d="M20,9.47l-5.11-5a.84.84,0,0,0-1.18,1.2l3.65,3.6H7.57a.84.84,0,1,0,0,1.68h9.78l-3.65,3.6a.84.84,0,0,0,0,1.19.81.81,0,0,0,.59.25.82.82,0,0,0,.59-.24L20,10.66a.83.83,0,0,0,0-1.19Z"/></g></svg>