<svg xmlns="http://www.w3.org/2000/svg" viewBox="0 0 29.9 25.79"><defs><style>.cls-1{fill:#fff;}</style></defs><title>home</title><g id="menu"><path class="cls-1" d="M20.78,8.48a10.59,10.59,0,0,0-7.15,2.89A8.48,8.48,0,0,0,11,18.56c-1.08-.13-2.07-.28-3.07-.37a1.93,1.93,0,0,0-1,.18c-1,.54-1.89,1.16-3,1.84.21-.91.34-1.7.57-2.47A.93.93,0,0,0,4,16.5C.7,14.14-.71,10.62.34,7A9.42,9.42,0,0,1,7,.55,11.06,11.06,0,0,1,19.05,4.1a8.31,8.31,0,0,1,1.73,4.38ZM8,7.35A1.28,1.28,0,0,0,6.77,6.07a1.24,1.24,0,0,0-1.29,1.2A1.22,1.22,0,0,0,6.69,8.55,1.27,1.27,0,0,0,8,7.35Zm6.67-1.28a1.29,1.29,0,0,0-1.26,1.26A1.26,1.26,0,0,0,14.7,8.55a1.24,1.24,0,1,0,0-2.48Z"/><path class="cls-1" d="M27,25.79a9.15,9.15,0,0,0-2.54-1.07,14.29,14.29,0,0,0-2.65.49,8.85,8.85,0,0,1-7.18-2.34c-3.83-3.54-3.28-9,1.15-11.87,3.94-2.58,9.71-1.72,12.49,1.86a7.1,7.1,0,0,1-.82,9.89c-.86.76-1.17,1.38-.62,2.38a3,3,0,0,1,.17.66ZM17,16.1a1,1,0,1,0-1-1,1,1,0,0,0,1,1ZM23.46,14a1,1,0,0,0-1,1,1,1,0,1,0,2,.09A1,1,0,0,0,23.46,14Z"/></g></svg>